<svg width="122" height="25" viewBox="0 0 122 25" fill="none" xmlns="http://www.w3.org/2000/svg">
<path d="M0.472 24.32V19.52H0.664C0.845333 20.416 1.208 21.2107 1.752 21.904C2.30667 22.5867 2.984 23.1253 3.784 23.52C4.584 23.904 5.45333 24.096 6.392 24.096C7.05333 24.096 7.656 24.0053 8.2 23.824C8.75467 23.632 9.19733 23.3387 9.528 22.944C9.85867 22.5493 10.024 22.048 10.024 21.44C10.024 20.8213 9.8 20.3307 9.352 19.968C8.91467 19.6053 8.344 19.3067 7.64 19.072C6.94667 18.8267 6.20533 18.5813 5.416 18.336C4.63733 18.0907 3.896 17.7813 3.192 17.408C2.49867 17.0347 1.928 16.5387 1.48 15.92C1.04267 15.2907 0.824 14.4693 0.824 13.456C0.824 12.6773 1.01067 11.952 1.384 11.28C1.75733 10.5973 2.296 10.048 3 9.632C3.704 9.20533 4.56267 8.992 5.576 8.992C6.33333 8.992 7.02133 9.11467 7.64 9.36C8.25867 9.60533 8.79733 9.93067 9.256 10.336L10.936 8.96H11.112V13.44H10.92C10.7493 12.7253 10.424 12.048 9.944 11.408C9.47467 10.7573 8.872 10.2293 8.136 9.824C7.41067 9.408 6.56267 9.2 5.592 9.2C5.00533 9.2 4.488 9.29067 4.04 9.472C3.592 9.64267 3.24 9.89333 2.984 10.224C2.728 10.5547 2.6 10.9387 2.6 11.376C2.6 11.9733 2.82933 12.4533 3.288 12.816C3.75733 13.1787 4.35467 13.4933 5.08 13.76C5.80533 14.016 6.57333 14.2773 7.384 14.544C8.20533 14.8 8.97867 15.12 9.704 15.504C10.4293 15.888 11.0213 16.3893 11.48 17.008C11.9493 17.616 12.184 18.4053 12.184 19.376C12.184 20.4213 11.9227 21.312 11.4 22.048C10.8773 22.784 10.184 23.3493 9.32 23.744C8.46667 24.128 7.544 24.32 6.552 24.32C5.73067 24.32 4.96267 24.1867 4.248 23.92C3.544 23.6533 2.92533 23.2853 2.392 22.816L0.648 24.32H0.472ZM20.7678 24.32C19.5518 24.32 18.6184 24.112 17.9678 23.696C17.3171 23.2693 16.8638 22.6933 16.6078 21.968C16.3624 21.2427 16.2398 20.416 16.2398 19.488V9.472H14.1918V9.28H20.0638V19.264C20.0638 20.16 20.1011 20.9333 20.1758 21.584C20.2504 22.2347 20.4104 22.7413 20.6558 23.104C20.9011 23.456 21.2744 23.632 21.7758 23.632C22.6611 23.632 23.3811 23.3973 23.9358 22.928C24.4904 22.448 24.9171 21.84 25.2158 21.104C25.5144 20.3573 25.7171 19.5733 25.8238 18.752C25.9304 17.92 25.9838 17.1413 25.9838 16.416L26.1438 16.32C26.1438 17.088 26.0851 17.9307 25.9678 18.848C25.8611 19.7653 25.6264 20.64 25.2638 21.472C24.9118 22.304 24.3784 22.9867 23.6638 23.52C22.9491 24.0533 21.9838 24.32 20.7678 24.32ZM25.9838 24V9.472H23.8398V9.28H29.8398V23.808H31.8718V24H25.9838ZM39.4388 9.28V23.808H41.1828V24H33.5668V23.808H35.6148V9.472H33.5668V9.28H39.4388ZM49.1988 13.792V23.808H51.2468V24H43.6148V23.808H45.3588V14.016C45.3588 13.12 45.3214 12.3467 45.2468 11.696C45.1721 11.0453 45.0121 10.544 44.7668 10.192C44.5321 9.82933 44.1641 9.648 43.6628 9.648C42.7774 9.648 42.0574 9.888 41.5028 10.368C40.9481 10.8373 40.5214 11.4453 40.2228 12.192C39.9241 12.928 39.7161 13.712 39.5988 14.544C39.4921 15.3653 39.4388 16.1387 39.4388 16.864L39.2788 16.96C39.2788 16.192 39.3374 15.3493 39.4548 14.432C39.5721 13.5147 39.8068 12.64 40.1588 11.808C40.5214 10.976 41.0601 10.2933 41.7748 9.76C42.5001 9.22667 43.4654 8.96 44.6708 8.96C45.8868 8.96 46.8201 9.168 47.4708 9.584C48.1214 10 48.5694 10.576 48.8148 11.312C49.0708 12.0373 49.1988 12.864 49.1988 13.792ZM58.6385 16.976C58.6385 15.92 58.7078 14.912 58.8465 13.952C58.9958 12.992 59.2358 12.1387 59.5665 11.392C59.8972 10.6453 60.3452 10.0533 60.9105 9.616C61.4865 9.17867 62.2012 8.96 63.0545 8.96C63.7265 8.96 64.3025 9.10933 64.7825 9.408C65.2625 9.696 65.6305 10.0693 65.8865 10.528C66.1425 10.9867 66.2705 11.4827 66.2705 12.016C66.2705 12.6773 66.0572 13.248 65.6305 13.728C65.2038 14.1973 64.6385 14.432 63.9345 14.432C63.2092 14.432 62.6278 14.2187 62.1905 13.792C61.7638 13.3653 61.5505 12.8533 61.5505 12.256C61.5505 11.5413 61.7798 10.9707 62.2385 10.544C62.7078 10.1173 63.2625 9.904 63.9025 9.904C64.3505 9.904 64.7505 10.0053 65.1025 10.208C65.4545 10.4 65.7318 10.656 65.9345 10.976C66.1372 11.296 66.2385 11.6427 66.2385 12.016H66.0625C66.0625 11.5147 65.9398 11.0507 65.6945 10.624C65.4492 10.1867 65.1025 9.83467 64.6545 9.568C64.2065 9.29067 63.6678 9.152 63.0385 9.152C62.2278 9.152 61.5452 9.36533 60.9905 9.792C60.4465 10.2187 60.0092 10.8 59.6785 11.536C59.3585 12.272 59.1292 13.1093 58.9905 14.048C58.8518 14.976 58.7825 15.952 58.7825 16.976H58.6385ZM58.7825 9.28V23.808H61.0065V24H52.9105V23.808H54.9585V9.472H52.9105V9.28H58.7825ZM75.8503 24.32C74.2823 24.32 72.9276 23.968 71.7863 23.264C70.6556 22.56 69.7809 21.6267 69.1623 20.464C68.5436 19.3013 68.2343 18.0267 68.2343 16.64C68.2343 15.2533 68.5436 13.9787 69.1623 12.816C69.7809 11.6533 70.6556 10.72 71.7863 10.016C72.9276 9.312 74.2823 8.96 75.8503 8.96C77.4183 8.96 78.7729 9.312 79.9143 10.016C81.0556 10.72 81.9303 11.6533 82.5383 12.816C83.1569 13.9787 83.4663 15.2533 83.4663 16.64C83.4663 18.0267 83.1569 19.3013 82.5383 20.464C81.9303 21.6267 81.0556 22.56 79.9143 23.264C78.7729 23.968 77.4183 24.32 75.8503 24.32ZM75.8503 24.128C76.5543 24.128 77.1303 23.904 77.5783 23.456C78.0263 23.008 78.3676 22.4213 78.6023 21.696C78.8476 20.96 79.0183 20.1493 79.1143 19.264C79.2103 18.3787 79.2583 17.504 79.2583 16.64C79.2583 15.7653 79.2103 14.8907 79.1143 14.016C79.0183 13.1307 78.8476 12.3253 78.6023 11.6C78.3676 10.864 78.0263 10.272 77.5783 9.824C77.1303 9.376 76.5543 9.152 75.8503 9.152C75.1463 9.152 74.5703 9.376 74.1223 9.824C73.6849 10.272 73.3436 10.864 73.0983 11.6C72.8529 12.3253 72.6823 13.1307 72.5863 14.016C72.4903 14.8907 72.4423 15.7653 72.4423 16.64C72.4423 17.504 72.4903 18.3787 72.5863 19.264C72.6823 20.1493 72.8529 20.96 73.0983 21.696C73.3436 22.4213 73.6849 23.008 74.1223 23.456C74.5703 23.904 75.1463 24.128 75.8503 24.128ZM98.6693 24.32C98.0613 24.32 97.5013 24.2347 96.9893 24.064C96.4879 23.904 96.0826 23.6213 95.7733 23.216C95.4746 22.8107 95.3253 22.2507 95.3253 21.536V14.256C95.3253 13.488 95.2613 12.72 95.1333 11.952C95.0053 11.184 94.7279 10.5493 94.3013 10.048C93.8853 9.536 93.2506 9.28 92.3973 9.28C91.8639 9.28 91.3093 9.34933 90.7333 9.488C90.1679 9.616 89.6346 9.808 89.1333 10.064C88.6319 10.32 88.2266 10.64 87.9173 11.024C87.6079 11.408 87.4533 11.8613 87.4533 12.384H87.2613C87.2613 11.7653 87.4799 11.2693 87.9173 10.896C88.3653 10.5227 88.8773 10.336 89.4533 10.336C90.0506 10.336 90.5839 10.5067 91.0533 10.848C91.5226 11.1893 91.7573 11.68 91.7573 12.32C91.7573 13.0347 91.5173 13.568 91.0373 13.92C90.5573 14.2613 90.0293 14.432 89.4533 14.432C88.8133 14.432 88.2799 14.256 87.8533 13.904C87.4373 13.5413 87.2293 13.0347 87.2293 12.384C87.2293 11.8293 87.3946 11.344 87.7253 10.928C88.0666 10.5013 88.5199 10.1493 89.0853 9.872C89.6506 9.59467 90.2799 9.38667 90.9733 9.248C91.6773 9.09867 92.3919 9.024 93.1173 9.024C94.6853 9.024 95.9066 9.264 96.7813 9.744C97.6559 10.224 98.2693 10.864 98.6213 11.664C98.9733 12.4533 99.1493 13.3173 99.1493 14.256V22.416C99.1493 22.7787 99.2293 23.0933 99.3893 23.36C99.5599 23.616 99.8586 23.744 100.285 23.744C100.605 23.744 100.979 23.5947 101.405 23.296C101.843 22.9973 102.195 22.56 102.461 21.984L102.589 22.112C102.28 22.7947 101.779 23.3333 101.085 23.728C100.392 24.1227 99.5866 24.32 98.6693 24.32ZM90.6693 24.32C89.2826 24.32 88.1733 23.968 87.3413 23.264C86.5199 22.5493 86.1093 21.584 86.1093 20.368C86.1093 18.9387 86.7173 17.84 87.9333 17.072C89.1493 16.2933 90.8933 15.904 93.1653 15.904H96.8133V16.08H93.8212C92.9573 16.08 92.2693 16.2987 91.7573 16.736C91.2559 17.1627 90.8933 17.6853 90.6693 18.304C90.4453 18.9227 90.3333 19.5093 90.3333 20.064C90.3333 20.576 90.3919 21.0827 90.5093 21.584C90.6373 22.0853 90.8453 22.5013 91.1333 22.832C91.4213 23.1627 91.8106 23.328 92.3013 23.328C92.8453 23.328 93.3466 23.1467 93.8053 22.784C94.2639 22.4213 94.6319 21.8667 94.9093 21.12C95.1866 20.3627 95.3253 19.392 95.3253 18.208H95.4693C95.4693 19.456 95.2933 20.5387 94.9413 21.456C94.5893 22.3733 94.0613 23.0827 93.3573 23.584C92.6533 24.0747 91.7573 24.32 90.6693 24.32ZM110.674 24.304C109.522 24.304 108.428 24 107.394 23.392C106.37 22.784 105.532 21.9093 104.882 20.768C104.242 19.6267 103.922 18.256 103.922 16.656C103.922 15.056 104.242 13.6853 104.882 12.544C105.532 11.392 106.37 10.512 107.394 9.904C108.428 9.28533 109.522 8.976 110.674 8.976C112.092 8.976 113.228 9.488 114.082 10.512C114.935 11.536 115.468 12.976 115.682 14.832V0.191999H113.634V-1.90735e-06H119.522V23.808H121.57V24H115.682V18.48C115.468 20.336 114.935 21.7707 114.082 22.784C113.228 23.7973 112.092 24.304 110.674 24.304ZM111.474 23.84C112.21 23.84 112.898 23.5733 113.538 23.04C114.178 22.5067 114.695 21.7067 115.09 20.64C115.484 19.5733 115.682 18.2453 115.682 16.656C115.682 15.056 115.484 13.7227 115.09 12.656C114.695 11.5893 114.178 10.784 113.538 10.24C112.898 9.696 112.21 9.424 111.474 9.424C110.748 9.424 110.151 9.71733 109.682 10.304C109.223 10.8907 108.882 11.7227 108.658 12.8C108.434 13.8773 108.322 15.1627 108.322 16.656C108.322 18.1387 108.434 19.4187 108.658 20.496C108.882 21.5733 109.223 22.4 109.682 22.976C110.151 23.552 110.748 23.84 111.474 23.84Z" fill="black"/>
</svg>
